<svg id="home-page-tenant" xmlns="http://www.w3.org/2000/svg" width="107.206" height="107.206" viewBox="0 0 107.206 107.206">
  <g id="Group_30" data-name="Group 30">
    <g id="Group_29" data-name="Group 29">
      <path id="Path_97" data-name="Path 97" d="M107.206,53.6a53.357,53.357,0,0,1-10.325,31.63C87.13,98.554,71.376,93.509,53.6,93.509s-33.527,5.046-43.278-8.276A53.6,53.6,0,1,1,107.206,53.6Z" transform="translate(0 0)" fill="#584b66"/>
    </g>
  </g>
  <path id="Path_98" data-name="Path 98" d="M92.588,133.668c17.773,0,33.527,5.046,43.278-8.276a53.7,53.7,0,0,0,9.3-42.118L112.683,50.795,58.249,92.537,81.873,116.1,49.31,125.392h0C59.061,138.713,74.815,133.668,92.588,133.668Z" transform="translate(-38.985 -40.159)" fill="#3d3449"/>
  <path id="Path_99" data-name="Path 99" d="M134.087,69.937l26.592-5.832-7.7-29.424c-2.562-9.793-9.3-17.045-17.529-18.854a42.268,42.268,0,0,0-18.229,0C109,17.636,102.258,24.888,99.7,34.681L92,64.105l26.592,5.832Z" transform="translate(-72.736 -11.727)" fill="#d36c18"/>
  <path id="Path_100" data-name="Path 100" d="M290.339,64.1l-26.592,5.831H256V14.83a42.463,42.463,0,0,1,9.115.995c8.225,1.809,14.967,9.06,17.528,18.855Z" transform="translate(-202.397 -11.725)" fill="#ad4b07"/>
  <path id="Path_101" data-name="Path 101" d="M199.97,260.488h23.464v24.884H199.97Z" transform="translate(-158.099 -205.945)" fill="#f7a969"/>
  <path id="Path_102" data-name="Path 102" d="M256,260.491h11.732v24.884H256Z" transform="translate(-202.397 -205.948)" fill="#ea8d4e"/>
  <path id="Path_103" data-name="Path 103" d="M134.563,332.292h50.855v23.932H134.563Z" transform="translate(-106.387 -262.714)" fill="#ffd4a6"/>
  <path id="Path_104" data-name="Path 104" d="M256,332.292h25.428v23.931H256Z" transform="translate(-202.397 -262.714)" fill="#ffbb7d"/>
  <path id="Path_105" data-name="Path 105" d="M135.866,347.946a53.607,53.607,0,0,1-86.556,0A16.165,16.165,0,0,1,65.466,332.29h15.39v1.922a11.732,11.732,0,1,0,23.464,0V332.29h15.392A16.159,16.159,0,0,1,135.866,347.946Z" transform="translate(-38.985 -262.713)" fill="#4cd3aa"/>
  <path id="Path_106" data-name="Path 106" d="M299.278,347.946A53.526,53.526,0,0,1,256,369.919V345.944a11.731,11.731,0,0,0,11.732-11.732V332.29h15.392A16.159,16.159,0,0,1,299.278,347.946Z" transform="translate(-202.397 -262.713)" fill="#26b290"/>
  <path id="Path_107" data-name="Path 107" d="M188.057,86.135c-.828-12.572-11-17.219-19.6-17.219s-18.775,4.646-19.6,17.219c-2.225.43-3.806,3.349-3.557,5.709l.382,5.37a4.442,4.442,0,0,0,4.84,4.018l.414-.045c4.917,13.2,12.629,14.581,17.524,15.354,4.9-.773,12.607-2.15,17.524-15.354l.414.045a4.442,4.442,0,0,0,4.84-4.018l.382-5.37c.249-2.36-1.332-5.279-3.557-5.709Z" transform="translate(-114.851 -54.486)" fill="#ffbf85"/>
  <path id="Path_108" data-name="Path 108" d="M279.161,91.843l-.381,5.37a4.442,4.442,0,0,1-4.84,4.018l-.414-.045a28.113,28.113,0,0,1-5.792,9.835c-4.063,4.238-8.507,5.009-11.732,5.519V68.916c8.605,0,18.775,4.646,19.6,17.219C277.829,86.565,279.41,89.484,279.161,91.843Z" transform="translate(-202.398 -54.486)" fill="#f7a969"/>
  <path id="Path_109" data-name="Path 109" d="M193.981,198.76a6.409,6.409,0,0,0-8.3,0,15.68,15.68,0,0,1-9.522,3.721l-3.851.156.258,1.552a17.5,17.5,0,0,0,17.266,14.632A18.721,18.721,0,0,0,207.26,203.2l.094-.563-3.851-.156A15.68,15.68,0,0,1,193.981,198.76Z" transform="translate(-136.227 -155.936)" fill="#efebdc"/>
  <path id="Path_110" data-name="Path 110" d="M273.524,202.634l-.092.563a18.959,18.959,0,0,1-5.7,11.106A19.21,19.21,0,0,1,256,218.818V197.23a6.393,6.393,0,0,1,4.152,1.526,15.66,15.66,0,0,0,9.521,3.721Z" transform="translate(-202.397 -155.933)" fill="#d6cfbd"/>
  <path id="Path_111" data-name="Path 111" d="M191.582,73.353A19.194,19.194,0,0,0,175.431,56.8a39.578,39.578,0,0,0-11.914,0,19.193,19.193,0,0,0-16.151,16.552l-.808,6.347,4.651-2.107a8.919,8.919,0,0,0,3.708-3.129l.459-.68a8.919,8.919,0,0,1,10.744-3.269,8.92,8.92,0,0,0,6.709,0,8.919,8.919,0,0,1,10.744,3.269l.459.68a8.92,8.92,0,0,0,3.708,3.129L192.39,79.7Z" transform="translate(-115.871 -44.551)" fill="#d36c18"/>
  <path id="Path_112" data-name="Path 112" d="M278.915,79.7l-4.65-2.109a8.925,8.925,0,0,1-3.708-3.128l-.459-.68a8.917,8.917,0,0,0-10.744-3.269A8.942,8.942,0,0,1,256,71.17V56.35a39.459,39.459,0,0,1,5.957.45,19.2,19.2,0,0,1,16.152,16.552Z" transform="translate(-202.397 -44.551)" fill="#ad4b07"/>
  <path id="Path_113" data-name="Path 113" d="M178.121,51.076a35.825,35.825,0,0,0-4.513,5.731l6.74-2.672a28.352,28.352,0,0,1,21.023,0l6.74,2.672a35.817,35.817,0,0,0-4.513-5.731A17.34,17.34,0,0,0,178.121,51.076Z" transform="translate(-137.257 -35.973)" fill="#ffea92"/>
  <path id="Path_114" data-name="Path 114" d="M273.251,56.807l-6.74-2.672A28.46,28.46,0,0,0,256,52.115V45.5a17.617,17.617,0,0,1,12.739,5.576A35.754,35.754,0,0,1,273.251,56.807Z" transform="translate(-202.397 -35.973)" fill="#f7d854"/>
</svg>
