<svg id="home-page-landlord" xmlns="http://www.w3.org/2000/svg" width="107.206" height="107.206" viewBox="0 0 107.206 107.206">
  <g id="Group_24" data-name="Group 24">
    <g id="Group_23" data-name="Group 23">
      <path id="Path_65" data-name="Path 65" d="M107.206,53.6a53.357,53.357,0,0,1-10.325,31.63C87.13,98.554,71.376,93.509,53.6,93.509s-33.527,5.046-43.278-8.276A53.6,53.6,0,1,1,107.206,53.6Z" transform="translate(0)" fill="#9b54f7"/>
    </g>
  </g>
  <path id="Path_66" data-name="Path 66" d="M92.588,143.215c17.773,0,33.527,5.046,43.278-8.276a53.357,53.357,0,0,0,10.325-31.63q0-2.692-.262-5.317L110.808,62.871,71.1,95.172l9.949,9.888,17.406,27.494L49.31,134.94C59.061,148.261,74.815,143.215,92.588,143.215Z" transform="translate(-38.985 -49.707)" fill="#8a1cea"/>
  <g id="Group_25" data-name="Group 25" transform="translate(10.325 7.119)">
    <path id="Path_67" data-name="Path 67" d="M199.97,260.488h23.464v24.884H199.97Z" transform="translate(-168.424 -213.064)" fill="#f7a969"/>
    <path id="Path_68" data-name="Path 68" d="M256,260.491h11.732v24.884H256Z" transform="translate(-212.722 -213.067)" fill="#ea8d4e"/>
    <path id="Path_69" data-name="Path 69" d="M119.712,332.29H104.32l-11.732,5.871L80.856,332.29H65.466A16.165,16.165,0,0,0,49.31,347.946a53.607,53.607,0,0,0,86.556,0A16.159,16.159,0,0,0,119.712,332.29Z" transform="translate(-49.31 -269.832)" fill="#efebdc"/>
    <path id="Path_70" data-name="Path 70" d="M299.278,347.946A53.527,53.527,0,0,1,256,369.919V338.162l11.732-5.872h15.392A16.159,16.159,0,0,1,299.278,347.946Z" transform="translate(-212.722 -269.832)" fill="#d6cfbd"/>
    <path id="Path_71" data-name="Path 71" d="M231.65,369.824l2.217,21.931a54.328,54.328,0,0,1-12.01,0l2.217-21.931-3.664-6.736,7.452-2.758,7.452,2.758Z" transform="translate(-184.584 -292.001)" fill="#584b66"/>
    <path id="Path_72" data-name="Path 72" d="M259.788,369.824l2.217,21.931a54.17,54.17,0,0,1-6.005.333V360.33l7.452,2.758Z" transform="translate(-212.722 -292.001)" fill="#3d3449"/>
    <path id="Path_73" data-name="Path 73" d="M267.732,311.667l8.579,4.318-7.957,15.364L256,321.857Z" transform="translate(-212.722 -253.527)" fill="#bab3a2"/>
    <path id="Path_74" data-name="Path 74" d="M188.057,86.134c-.828-12.572-11-17.218-19.6-17.218s-18.775,4.646-19.6,17.218c-2.225.43-3.806,3.349-3.557,5.709l.382,5.37a4.442,4.442,0,0,0,4.84,4.018l.414-.045c4.917,13.2,12.629,14.581,17.524,15.354,4.9-.773,12.607-2.15,17.524-15.354l.414.045a4.442,4.442,0,0,0,4.84-4.018l.382-5.37C191.863,89.484,190.283,86.565,188.057,86.134Z" transform="translate(-125.176 -61.605)" fill="#ffbf85"/>
    <path id="Path_75" data-name="Path 75" d="M279.161,91.843l-.382,5.37a4.442,4.442,0,0,1-4.84,4.018l-.414-.045a28.114,28.114,0,0,1-5.792,9.835c-4.063,4.238-8.507,5.009-11.732,5.519V68.916c8.605,0,18.775,4.646,19.6,17.218,2.225.43,3.806,3.349,3.557,5.709Z" transform="translate(-212.723 -61.605)" fill="#f7a969"/>
    <path id="Path_76" data-name="Path 76" d="M193.981,198.76a6.409,6.409,0,0,0-8.3,0,15.68,15.68,0,0,1-9.522,3.721l-3.851.156.258,1.552a17.5,17.5,0,0,0,17.266,14.632A18.721,18.721,0,0,0,207.26,203.2l.094-.563-3.851-.156A15.68,15.68,0,0,1,193.981,198.76Z" transform="translate(-146.551 -163.055)" fill="#efebdc"/>
    <path id="Path_77" data-name="Path 77" d="M273.524,202.634l-.092.563a18.959,18.959,0,0,1-5.7,11.106A19.209,19.209,0,0,1,256,218.818V197.23a6.393,6.393,0,0,1,4.152,1.526,15.66,15.66,0,0,0,9.521,3.721Z" transform="translate(-212.722 -163.052)" fill="#d6cfbd"/>
    <path id="Path_78" data-name="Path 78" d="M167.579,311.667,159,315.985l7.957,15.364,12.354-9.492Z" transform="translate(-136.032 -253.527)" fill="#d6cfbd"/>
    <path id="Path_79" data-name="Path 79" d="M170.414,34c-23.87,0-23.975,15.39-21.776,23.033l3.35,9.562,3.978-12.263s5.519,6.889,14.381,1.445c4.5-2.765,9.5-2.011,13.338-.6l3.7,11.417,3.35-9.562C192.938,49.39,194.284,34,170.414,34Z" transform="translate(-127.136 -34)" fill="#584b66"/>
    <path id="Path_80" data-name="Path 80" d="M276.325,57.033l-3.35,9.563-3.7-11.418c-3.815-1.4-8.786-2.159-13.271.559V34C279.87,34,278.524,49.39,276.325,57.033Z" transform="translate(-212.722 -34)" fill="#3d3449"/>
  </g>
</svg>
