<svg xmlns="http://www.w3.org/2000/svg" width="634.326" height="490.604" viewBox="0 0 634.326 490.604">
  <g id="undraw_connection_b38q" transform="translate(0 0)">
    <path id="Path_14" data-name="Path 14" d="M461.206,448.545a173.718,173.718,0,1,1,122.837-50.881A173.717,173.717,0,0,1,461.206,448.545Zm0-346.3c-95.165,0-172.586,77.422-172.586,172.587s77.422,172.587,172.586,172.587,172.586-77.422,172.586-172.587S556.371,102.24,461.206,102.24Z" transform="translate(-147.155 -53.222)" fill="#3f3d56"/>
    <path id="Path_15" data-name="Path 15" d="M606.707,662.955c-3.217,11.892-14.236,19.257-14.236,19.257s-5.8-11.915-2.586-23.807,14.236-19.257,14.236-19.257S609.924,651.064,606.707,662.955Z" transform="translate(-278.024 -286.815)" fill="#40ffb3"/>
    <path id="Path_16" data-name="Path 16" d="M567.9,662.955c3.217,11.892,14.236,19.257,14.236,19.257s5.8-11.915,2.586-23.807-14.236-19.257-14.236-19.257S564.679,651.064,567.9,662.955Z" transform="translate(-268.477 -286.815)" fill="#40ffb3"/>
    <path id="Path_17" data-name="Path 17" d="M560.069,669.558c8.828,8.593,9.905,21.8,9.905,21.8s-13.234-.723-22.061-9.316-9.906-21.8-9.906-21.8S551.242,660.965,560.069,669.558Z" transform="translate(-255.924 -295.973)" fill="#3f3d56"/>
    <path id="Path_18" data-name="Path 18" d="M604.405,669.558c-8.827,8.593-9.905,21.8-9.905,21.8s13.234-.723,22.061-9.316,9.906-21.8,9.906-21.8S613.233,660.965,604.405,669.558Z" transform="translate(-280.449 -295.973)" fill="#3f3d56"/>
    <path id="Path_19" data-name="Path 19" d="M567.9,121.4c3.217-11.892,14.236-19.257,14.236-19.257s5.8,11.915,2.586,23.807-14.236,19.257-14.236,19.257S564.679,133.3,567.9,121.4Z" transform="translate(-268.477 -53.681)" fill="#40ffb3"/>
    <path id="Path_20" data-name="Path 20" d="M606.707,121.4c-3.217-11.892-14.236-19.257-14.236-19.257s-5.8,11.915-2.586,23.807,14.236,19.257,14.236,19.257S609.924,133.3,606.707,121.4Z" transform="translate(-278.024 -53.681)" fill="#40ffb3"/>
    <path id="Path_21" data-name="Path 21" d="M604.405,123.968c-8.827-8.593-9.905-21.8-9.905-21.8s13.234.723,22.061,9.316,9.906,21.8,9.906,21.8S613.233,132.562,604.405,123.968Z" transform="translate(-280.449 -53.688)" fill="#3f3d56"/>
    <path id="Path_22" data-name="Path 22" d="M560.069,123.968c8.828-8.593,9.905-21.8,9.905-21.8s-13.234.723-22.061,9.316-9.906,21.8-9.906,21.8S551.242,132.562,560.069,123.968Z" transform="translate(-255.924 -53.688)" fill="#3f3d56"/>
    <rect id="Rectangle_4" data-name="Rectangle 4" width="224.903" height="228.701" transform="translate(8.277 7.173)" fill="#40ffb3"/>
    <path id="Path_23" data-name="Path 23" d="M234.639,22.935H22.935V237.072H34.291V35.1H234.639Z" transform="translate(-9.957 -9.957)" fill="#3f3d56"/>
    <path id="Path_24" data-name="Path 24" d="M234.639,22.935H22.935V237.072H34.291V35.1H234.639Z" transform="translate(-9.957 -9.957)" fill="#43463f"/>
    <path id="Path_25" data-name="Path 25" d="M210.906,44.437H43v29.2H201.984v172.77h41.368V44.437Z" transform="translate(-18.669 -19.292)" fill="#4ce8aa"/>
    <path id="Path_26" data-name="Path 26" d="M39.5,16.495V256.588H277.16V16.495ZM264.182,243.61H52.478V29.473h211.7Z" transform="translate(-39.5 -16.495)" fill="#3f3d56"/>
    <path id="Path_27" data-name="Path 27" d="M325.489,456.438s10.747,20.822,16.792,25.523-9.739,10.411-9.739,10.411L314.071,463.49Z" transform="translate(-158.703 -207.493)" fill="#ffc7a2"/>
    <path id="Path_28" data-name="Path 28" d="M203.137,366.821s50.039,13.1,54.4,21.829,17.8,29.889,17.8,29.889l-19.814,15.784-19.478-29.217-53.733-24.18Z" transform="translate(-101.502 -168.586)" fill="#2f2e41"/>
    <path id="Path_29" data-name="Path 29" d="M334.986,500.554s-4.7-4.03-6.045-1.343-5.373,16.456-5.373,16.456,5.709,5.373,17.463,2.015c0,0,3.022-2.351,7.724,0s22.165-2.351,21.493-10.075-18.471-7.053-18.471-7.053-7.5-8.4-8.45-5.207.39,3.528.39,3.528S337.672,505.255,334.986,500.554Z" transform="translate(-162.826 -224.071)" fill="#2f2e41"/>
    <path id="Path_30" data-name="Path 30" d="M239.681,492.641l-3.358,28.21h16.456s-1.343-21.829-1.008-24.516S239.681,492.641,239.681,492.641Z" transform="translate(-124.949 -223.21)" fill="#ffc7a2"/>
    <path id="Path_31" data-name="Path 31" d="M254.238,382.845s9.067,13.433,3.694,14.441-9.739-14.441-9.739-14.441Z" transform="translate(-130.103 -175.543)" fill="#a0616a"/>
    <path id="Path_32" data-name="Path 32" d="M137.222,378.41s-6.717,19.814,19.814,25.187,34.59,9.739,34.59,9.739l3.358,34.255,23.172,1.343s11.082-52.054-3.358-58.77-45-14.441-45-14.441Z" transform="translate(-81.596 -172.451)" fill="#2f2e41"/>
    <path id="Path_33" data-name="Path 33" d="M233.178,528.262s4.7-2.351,5.373-2.351c0,0,2.952-6.809,8.36-6.091l11.79,17.174s17.8,12.762,5.373,16.12a45.931,45.931,0,0,1-22.165.672l-5.038-3.694s.672-3.694-3.694-3.022c0,0-9.067-3.694-8.732-6.381s7.469-14.381,7.469-14.381Z" transform="translate(-119.789 -234.987)" fill="#2f2e41"/>
    <circle id="Ellipse_2" data-name="Ellipse 2" cx="13.433" cy="13.433" r="13.433" transform="translate(102.81 113.773)" fill="#ffc7a2"/>
    <path id="Path_34" data-name="Path 34" d="M214.35,233.878s-12.09,8.732-14.441,9.067,11.082,16.792,11.082,16.792,6.381-10.411,10.411-11.754S214.35,233.878,214.35,233.878Z" transform="translate(-109.021 -110.87)" fill="#ffc7a2"/>
    <path id="Path_35" data-name="Path 35" d="M177.373,248.31s-5.038-6.717-8.06-6.717-30.225,3.022-32.576,25.523-1.008,61.793-1.008,61.793-2.015-9.739,20.486-5.709c0,0,26.867-5.709,31.568-5.709s6.717-48.024,6.717-48.024l-7.647-11.855S183.418,264.094,177.373,248.31Z" transform="translate(-81.111 -114.22)" fill="#d0cde1"/>
    <path id="Path_36" data-name="Path 36" d="M228.148,286.1l5.037,2.687,6.045,36.942,8.4,19.142s-9.067-3.122-9.739.622l-13.433-19.429Z" transform="translate(-119.796 -133.544)" fill="#d0cde1"/>
    <path id="Path_37" data-name="Path 37" d="M231.506,212.444l7.308.913c-.139,1.487-.1,3.33,1.217,4.033.619.331,1.405.314,1.955.752,1.321,1.053.029,3.317.774,4.832l2.137.566a4.131,4.131,0,0,0,5.614,1.684c1.436-.862,2.168-2.51,2.814-4.056.772-1.847,1.56-3.831,1.174-5.794-.415-2.11-2.139-3.863-2.217-6.012-.035-.961.168-2.16-.642-2.678a3.425,3.425,0,0,0-1.185-.315c-1.867-.39-2.907-2.322-4.3-3.626-2.918-2.732-7.4-2.66-11.389-2.422a10.116,10.116,0,0,0-3.352.584,9.765,9.765,0,0,0-3.158,2.518,32.988,32.988,0,0,0-5.635,7.464,13.248,13.248,0,0,0-1.34,9.087c-.076-.292,2.464-2.2,2.78-2.507a6.584,6.584,0,0,0,1.62-2.526C226.936,212.363,228.677,212.091,231.506,212.444Z" transform="translate(-118.283 -96.255)" fill="#2f2e41"/>
    <path id="Path_38" data-name="Path 38" d="M162.1,281.777l1.008,23.509L178.05,322.8l-13.595-19.533Z" transform="translate(-70.376 -122.331)" opacity="0.1"/>
    <path id="Path_39" data-name="Path 39" d="M114.625,293.054l11.754,27.2,15.112,12.426L125.371,321.6Z" transform="translate(-49.764 -127.227)" opacity="0.1"/>
    <path id="Path_40" data-name="Path 40" d="M257.755,348.35l7.1,4.885a1.961,1.961,0,0,1,.543,2.413l-.95,1.96.22.151-1.079,2.227-.22-.151-7.823,16.144a1.515,1.515,0,0,1-2.254.72l-6.674-4.591a2.255,2.255,0,0,1-.624-2.774l9.877-20.383a1.265,1.265,0,0,1,1.883-.6Z" transform="translate(-129.046 -160.475)" fill="#3f3d56"/>
    <path id="Path_41" data-name="Path 41" d="M207.976,353l7.644,5.258,9.972-20.578-7.645-5.259Z" transform="translate(-90.291 -144.318)" fill="#fff"/>
    <path id="Path_42" data-name="Path 42" d="M237.288,377.276s13.321,9.231,8.679,12.119-14.313-9.927-14.313-9.927Z" transform="translate(-122.922 -173.125)" fill="#a0616a"/>
    <path id="Path_43" data-name="Path 43" d="M161.4,256.431s-17.463,5.037-12.426,20.486c1.215,3.727,2.684,7.727,4.214,11.652,4.813,12.346,10.226,23.947,10.226,23.947l15.179,13.725,20.419,5.754,2.351-2.015s.672-6.381-2.351-7.053-7.724-3.358-7.724-3.358l-12.09-17.8S178.862,257.438,161.4,256.431Z" transform="translate(-86.631 -120.661)" fill="#d0cde1"/>
    <rect id="Rectangle_5" data-name="Rectangle 5" width="219.548" height="223.256" transform="translate(626.246 400.294) rotate(180)" fill="#40ffb3"/>
    <path id="Path_44" data-name="Path 44" d="M733.389,322.881H940.052V531.92H928.967V334.758H733.389Z" transform="translate(-318.395 -140.176)" fill="#3f3d56"/>
    <path id="Path_45" data-name="Path 45" d="M733.389,322.881H940.052V531.92H928.967V334.758H733.389Z" transform="translate(-318.395 -140.176)" fill="#43463f"/>
    <path id="Path_46" data-name="Path 46" d="M765.062,343.871H928.967v28.505h-155.2V541.033H733.389V343.871Z" transform="translate(-318.395 -149.289)" fill="#4ce8aa"/>
    <path id="Path_47" data-name="Path 47" d="M750.5,316.987V551.363h232V316.987Zm12.669,12.669H969.833V538.695H763.169Z" transform="translate(-348.175 -146.951)" fill="#3f3d56"/>
    <path id="Path_48" data-name="Path 48" d="M960.5,505.461c-5-8.441-14.88-8.835-14.88-8.835s-9.631-1.232-15.81,11.625c-5.759,11.983-13.707,23.553-1.28,26.358l2.245-6.986,1.39,7.507a48.641,48.641,0,0,0,5.317.091c13.308-.43,25.983.126,25.575-4.65C962.513,524.222,965.305,513.583,960.5,505.461Z" transform="translate(-422.609 -224.927)" fill="#2f2e41"/>
    <path id="Path_49" data-name="Path 49" d="M886.132,612.945l-1.051,18.919,30.83,3.153,1.051-19.619-10.511-6.656Z" transform="translate(-384.251 -264.281)" fill="#a0616a"/>
    <path id="Path_50" data-name="Path 50" d="M989.4,682.9c-.925-8.937-37.629-12.994-46.451-13.841l-3.3-1.924L938.6,655.926s-32.582-2.8-35.034-3.153-4.554,4.2-4.554,5.255c0,.76-.458,6.184-2.3,9.4-3.975,3.194-16.094,13.244-16.094,17.052,0,4.555,9.634,61.836,9.634,61.836l1.051,11.912,9.81,1.752-.7-37.136s3.5-21.371-1.4-27.327v-2.452s14.386-3.748,19.456-7.829c1.469-.316,5.6-1.093,7.878-.417.313.184.673.373,1.074.566a1.617,1.617,0,0,1,.145.148l.04-.061c6.559,3.07,23.384,6.942,30.265,5.841a24.082,24.082,0,0,1,15.415,2.8c-3.854,4.9-1.051,18.919-1.051,18.919l.35,30.13,4.9,5.956h6.656V732.651S990.452,693.062,989.4,682.9Z" transform="translate(-404.665 -292.722)" fill="#2f2e41"/>
    <circle id="Ellipse_3" data-name="Ellipse 3" cx="11.561" cy="11.561" r="11.561" transform="translate(508.362 280.523)" fill="#a0616a"/>
    <path id="Path_51" data-name="Path 51" d="M938.952,545.676s1.752,7.707-.7,8.408a33.143,33.143,0,0,0-5.605,2.452l-2.8,9.109v9.109l33.983,3.854,1.051-3.153V570.9l-3.854-7.007-1.752-1.752s-7.707-8.408-5.956-16.466Z" transform="translate(-426.036 -246.235)" fill="#a0616a"/>
    <path id="Path_52" data-name="Path 52" d="M993.046,594.9s1.051,12.262,0,17.868-.7,14.014-.7,14.014l-7.708-1.4V606.459l1.752-10.16Z" transform="translate(-449.825 -267.604)" fill="#a0616a"/>
    <circle id="Ellipse_4" data-name="Ellipse 4" cx="7.147" cy="7.147" r="7.147" transform="translate(517.073 264.596)" fill="#2f2e41"/>
    <path id="Path_53" data-name="Path 53" d="M950.8,487.92a7.147,7.147,0,0,1,6.394-7.107,7.228,7.228,0,0,0-.752-.04,7.147,7.147,0,0,0,0,14.293,7.219,7.219,0,0,0,.752-.04A7.147,7.147,0,0,1,950.8,487.92Z" transform="translate(-434.482 -218.058)" fill="#2f2e41"/>
    <path id="Path_54" data-name="Path 54" d="M926.693,490.407l-9.764-5.115-13.485,2.093-2.79,12.322,6.945-.267,1.94-4.527v4.452l3.2-.123,1.86-7.207,1.162,7.672,11.392-.233Z" transform="translate(-391.012 -210.686)" fill="#2f2e41"/>
    <path id="Path_55" data-name="Path 55" d="M904.6,818.356s4.971,2.339,6.434,3.217,7.311-.877,6.141,4.386-6.141,10.235-6.141,10.235-2.339,2.632-2.339,4.387-5.849,15.207-12.867,14.622-5.849-7.6-5.849-7.6l1.462-7.6s2.924-12.867,3.509-12.575a12.785,12.785,0,0,1,2.047,2.34A12.972,12.972,0,0,0,904.6,818.356Z" transform="translate(-408.699 -364.617)" fill="#d0cde1"/>
    <path id="Path_56" data-name="Path 56" d="M1034.964,802.877s-4.971,2.34-6.434,3.217-7.311-.877-6.141,4.387,6.141,10.235,6.141,10.235,2.339,2.632,2.339,4.386,5.849,15.207,12.867,14.622,5.849-7.6,5.849-7.6l-1.462-7.6s-2.924-12.867-3.509-12.575a12.778,12.778,0,0,0-2.047,2.339A12.975,12.975,0,0,1,1034.964,802.877Z" transform="translate(-466.148 -357.897)" fill="#d0cde1"/>
    <path id="Path_57" data-name="Path 57" d="M967.129,650.83v-2.78h-.618v-1.236a2.162,2.162,0,0,0-2.163-2.162h-7.414a2.163,2.163,0,0,0-2.163,2.162v20.7a2.163,2.163,0,0,0,2.163,2.163h7.414a2.163,2.163,0,0,0,2.163-2.163V654.536h.618v-2.78h-.618v-.927Z" transform="translate(-436.859 -289.204)" fill="#d0cde1"/>
    <circle id="Ellipse_5" data-name="Ellipse 5" cx="1.236" cy="1.236" r="1.236" transform="translate(522.856 360.389)" fill="#3f3d56"/>
    <path id="Path_58" data-name="Path 58" d="M905.712,584.372,899.406,610.3a7.3,7.3,0,0,0,3.153,9.109c5.606,3.5,18.218,8.058,18.218,8.058s11.211,15.415,12.612,9.109-8.408-14.364-8.408-14.364l-17.167-10.861,6.657-18.218Z" transform="translate(-412.59 -263.034)" fill="#a0616a"/>
    <path id="Path_59" data-name="Path 59" d="M982.472,641.933s5.255-.7,4.9,5.255-7.357,6.657-7.357,6.657-3.153,13.313-7.708,10.86,2.452-15.765,2.452-15.765l5.956-4.554Z" transform="translate(-443.806 -288.013)" fill="#a0616a"/>
    <path id="Path_60" data-name="Path 60" d="M922.285,571.478l5.605-11.561L916.68,563.77a12.967,12.967,0,0,0-6.657,10.51c-.35,7.357,8.058,11.211,8.058,11.211s1.4,10.51.7,11.912,0,7.007,0,7.007,13.488-3.679,20.145.876,12.087,1.927,12.087,1.927-.35-8.759,2.452-10.16,5.255-8.058,2.8-12.262c0,0,5.605.7,5.255-4.555a13.777,13.777,0,0,0-7.708-11.912c-4.554-2.1-5.058-2.438-5.058-2.438l6.459,11.9v3.153s-11.435-7.3-22.748-7.907a15.069,15.069,0,0,0-10.184,3.352h0Z" transform="translate(-417.427 -252.417)" fill="#2f2e41"/>
  </g>
</svg>
