<svg id="Layer_1" data-name="Layer 1" xmlns="http://www.w3.org/2000/svg" viewBox="0 0 46.15 60.21"><defs><style>.cls-1{fill:#fff;}.cls-2{fill:#40ffb3;}.cls-3{fill:#fcfcfc;}.cls-4{fill:#fbfbfb;}.cls-5{fill:#4ce8aa;}.cls-6{fill:#2e2e2e;}.cls-7{isolation:isolate;}</style></defs><title>3duck</title><g id="duck"><ellipse id="Ellipse_1" data-name="Ellipse 1" class="cls-1" cx="23" cy="26.45" rx="21.3" ry="18.4"/><path id="Path_6" data-name="Path 6" class="cls-2" d="M33.27,31c0-3.4-4.2-4.4-9.4-4.4s-9.4,1-9.4,4.4,4.2,6.2,9.4,6.2S33.27,34.5,33.27,31Z" transform="translate(-0.87 -0.15)"/><path id="Path_7" data-name="Path 7" class="cls-2" d="M34.87,28.9h0a2.62,2.62,0,0,0-1.8-1.6l-4.4-1.1A2.65,2.65,0,0,1,27,24.8l-.6-1.2a2.44,2.44,0,0,0-2.3-1.4H24a2.61,2.61,0,0,0-2.3,1.4l-.6,1.2a2.91,2.91,0,0,1-1.7,1.4L15,27.3a2.62,2.62,0,0,0-1.8,1.6h0a2.83,2.83,0,0,0,1.4,3.7,3.55,3.55,0,0,0,1,.2h17.1a2.94,2.94,0,0,0,2.7-2.9C35.07,29.6,35.07,29.2,34.87,28.9Z" transform="translate(-0.87 -0.15)"/><path id="Path_8" data-name="Path 8" class="cls-3" d="M32.17,4.1A1.82,1.82,0,0,0,29.87,3a11,11,0,0,0-5.3,3.5.62.62,0,0,1-.7.1c-.1-.1-.2-.2-.2-.3a8,8,0,0,1,.4-3.1,1.77,1.77,0,0,0-3.3-1.3c-.9,2.2-1.1,6.7.7,9.3.3.4,1.9,2.2,2.7,2.2A1.79,1.79,0,0,0,26,11.6h0c0-.7.8-3.8,4.9-5.1a2,2,0,0,0,1.3-2.4Z" transform="translate(-0.87 -0.15)"/><path id="Path_9" data-name="Path 9" class="cls-4" d="M17.67,9.1c-8.7,2.4-15,9.3-15,17.5,0,10.2,9.7,18.4,21.8,18.4a25.5,25.5,0,0,0,10.9-2.4C1.17,38.9,8.27,16.2,17.67,9.1Z" transform="translate(-0.87 -0.15)"/><g id="Group_9" data-name="Group 9"><path id="Path_10" data-name="Path 10" class="cls-5" d="M22,27a.68.68,0,0,1-.7-.7.6.6,0,0,1,.1-.4L22,25a.75.75,0,0,1,1-.2.65.65,0,0,1,.2.9h0l-.7,1A.55.55,0,0,1,22,27Z" transform="translate(-0.87 -0.15)"/><path id="Path_11" data-name="Path 11" class="cls-5" d="M25.81,27a.71.71,0,0,1-.6-.3l-.6-1a.65.65,0,1,1,1.1-.7h0l.6,1a.58.58,0,0,1-.2.9.37.37,0,0,1-.3.1Z" transform="translate(-0.87 -0.15)"/></g><path id="Path_12" data-name="Path 12" class="cls-5" d="M18.47,26.4l-4,.9a2.59,2.59,0,0,0-1.9,1.6h0A2.83,2.83,0,0,0,14,32.6a2.15,2.15,0,0,0,1.1.2h6C15.37,31.9,16.07,27.7,18.47,26.4Z" transform="translate(-0.87 -0.15)"/><path id="Path_13" data-name="Path 13" class="cls-6" d="M23.87,37.9c4.2,0,7.8-1.8,9.2-4.5a3.27,3.27,0,0,0,2.4-1.5,3.83,3.83,0,0,0,.3-3.3,3.53,3.53,0,0,0-2.3-2l-4.5-1a2.07,2.07,0,0,1-1.4-1L27,23.4a3.34,3.34,0,0,0-2.9-1.8H24a3.22,3.22,0,0,0-2.9,1.8l-.6,1.2a2.07,2.07,0,0,1-1.4,1l-4.5,1a3.53,3.53,0,0,0-2.3,2,3.27,3.27,0,0,0,.3,3.3A3,3,0,0,0,15,33.4C16.07,36.2,19.77,37.9,23.87,37.9Zm0-1.3c-3.3,0-6.2-1.2-7.6-3.1h15.2C30.07,35.4,27.17,36.6,23.87,36.6Zm-10.5-5.4a2.37,2.37,0,0,1-.2-2,2.08,2.08,0,0,1,1.4-1.2l4.5-1.1a3.37,3.37,0,0,0,2.2-1.7l.6-1.2a2.11,2.11,0,0,1,1.8-1.1H24a1.89,1.89,0,0,1,1.8,1.1l.6,1.2a3.37,3.37,0,0,0,2.2,1.7l4.5,1.1a2.11,2.11,0,0,1,1.4,1.2h0a2,2,0,0,1-.2,2,2.06,2.06,0,0,1-1.7,1H15.07A2.06,2.06,0,0,1,13.37,31.2ZM11.87,41a19.33,19.33,0,0,1-6.2-6.2,15.87,15.87,0,0,1-2.3-8.2c0-9.8,9.3-17.7,20.6-17.7a22.28,22.28,0,0,1,10.5,2.5,19.31,19.31,0,0,1,7.4,6.5.65.65,0,0,0,.9.2h0a.65.65,0,0,0,.2-.9,21.07,21.07,0,0,0-7.9-6.9,21.42,21.42,0,0,0-6-2.1,8.42,8.42,0,0,1,2.1-1.1,2.76,2.76,0,0,0,1.4-1.2,2.51,2.51,0,0,0,.1-1.9,2.43,2.43,0,0,0-3-1.5,11.58,11.58,0,0,0-5.1,3.3A5.87,5.87,0,0,1,25,3.5,2.55,2.55,0,0,0,23.67.3a2.77,2.77,0,0,0-1.8,0,2.74,2.74,0,0,0-1.3,1.3A13.47,13.47,0,0,0,20,7.9a23.67,23.67,0,0,0-11.5,5.2A18.06,18.06,0,0,0,2,26.6a17.59,17.59,0,0,0,2.5,8.9,6.78,6.78,0,0,0,.6.9,19.53,19.53,0,0,0,6.1,5.7.37.37,0,0,0,.3.1.86.86,0,0,0,.6-.3A.65.65,0,0,0,11.87,41Zm9.8-39a.9.9,0,0,1,.6-.6,1.1,1.1,0,0,1,.8,0,1.07,1.07,0,0,1,.6,1.4,9.67,9.67,0,0,0-.5,3.4,1,1,0,0,0,.8,1,1,1,0,0,0,1.2-.4A10.66,10.66,0,0,1,30,3.5a1.08,1.08,0,0,1,1.4.7,1.1,1.1,0,0,1,0,.8.9.9,0,0,1-.6.6,8.09,8.09,0,0,0-3.4,2.1A19.4,19.4,0,0,0,24,7.5a24.37,24.37,0,0,0-2.7.1A11.87,11.87,0,0,1,21.67,2Zm8.9,19.1c0,.4.2.7.6.7s.7-.2.7-.6v-.1a1.45,1.45,0,0,1,2.9-.1v.1c0,.4.2.7.6.7s.7-.2.7-.6v-.1a2.75,2.75,0,1,0-5.5-.1v.1Zm-18.8,0c0,.4.2.7.6.7s.7-.2.7-.6v-.1A1.45,1.45,0,0,1,16,21v.1c0,.4.2.7.6.7s.7-.2.7-.6v-.1a2.78,2.78,0,0,0-2.7-2.8,2.94,2.94,0,0,0-2.9,2.7.1.1,0,0,0,.1.1Zm32.8-.9a.68.68,0,0,0-.8-.4h0a.63.63,0,0,0-.3.9,15.18,15.18,0,0,1,1.2,5.9,22,22,0,0,1-.4,3.6c-1.9,7.9-10.3,14.1-20.4,14.1a24.16,24.16,0,0,1-8.8-1.7.6.6,0,0,0-.8.4h0a.74.74,0,0,0,.4.9A24.82,24.82,0,0,0,24,45.7a23.73,23.73,0,0,0,15.5-5.5A18.06,18.06,0,0,0,46,26.7a22.8,22.8,0,0,0-1.4-6.5Z" transform="translate(-0.87 -0.15)"/></g><g class="cls-7"><path class="cls-6" d="M6.55,50a2.74,2.74,0,0,1,1.2.93,2.26,2.26,0,0,1,.4,1.32,2.32,2.32,0,0,1-.51,1.53,3.13,3.13,0,0,1-1.49.91,2.73,2.73,0,0,1,1.68.73,2.33,2.33,0,0,1,.65,1.79A2.9,2.9,0,0,1,8,58.81a3.17,3.17,0,0,1-1.37,1.13,5.14,5.14,0,0,1-2.18.42A4.38,4.38,0,0,1,.87,58.77l1.4-1.36a3.74,3.74,0,0,0,1,.72,2.36,2.36,0,0,0,1,.22,1.56,1.56,0,0,0,1-.34,1.22,1.22,0,0,0,.4-1,1.27,1.27,0,0,0-.38-1,1.89,1.89,0,0,0-1.18-.32H3.33l.3-1.8h.6a1.43,1.43,0,0,0,1-.31,1.09,1.09,0,0,0,.36-.86,1,1,0,0,0-.34-.79,1.43,1.43,0,0,0-.91-.27,2.76,2.76,0,0,0-1.95.87l-1.32-1.4A5,5,0,0,1,4.65,49.7,5,5,0,0,1,6.55,50Z" transform="translate(-0.87 -0.15)"/><path class="cls-6" d="M16.79,50.78c1,.75,1.5,2.1,1.5,4.06q0,5.25-5.26,5.25H9.7V49.67h3.12A6.51,6.51,0,0,1,16.79,50.78Zm-4.32.87v6.46h.72a2,2,0,0,0,1.69-.72,4.33,4.33,0,0,0,.55-2.55,5.94,5.94,0,0,0-.26-2,1.79,1.79,0,0,0-.75-1,2.56,2.56,0,0,0-1.24-.27Z" transform="translate(-0.87 -0.15)"/><path class="cls-6" d="M27.76,56.6a4,4,0,0,1-.47,1.93,3.29,3.29,0,0,1-1.42,1.34,4.93,4.93,0,0,1-2.31.49,4.42,4.42,0,0,1-3.14-1,3.62,3.62,0,0,1-1.06-2.75V49.67h2.77v6.84a2.29,2.29,0,0,0,.34,1.38,1.28,1.28,0,0,0,1.09.45,1.25,1.25,0,0,0,1.08-.45A2.34,2.34,0,0,0,25,56.51V49.67h2.79Z" transform="translate(-0.87 -0.15)"/><path class="cls-6" d="M35.44,49.7a5,5,0,0,1,1.48.88l-1.3,1.55a4.3,4.3,0,0,0-.9-.53,2.41,2.41,0,0,0-.93-.18,1.76,1.76,0,0,0-1.55.86,4.81,4.81,0,0,0-.55,2.58,4.7,4.7,0,0,0,.56,2.56,1.79,1.79,0,0,0,1.57.84,2.25,2.25,0,0,0,1-.22,5.33,5.33,0,0,0,1-.63L37,59a5,5,0,0,1-1.47,1,4.51,4.51,0,0,1-1.87.39,5.05,5.05,0,0,1-2.59-.64,4.24,4.24,0,0,1-1.7-1.87,6.81,6.81,0,0,1-.6-3,6.51,6.51,0,0,1,.61-2.94A4.4,4.4,0,0,1,31.13,50a4.87,4.87,0,0,1,2.52-.64A5.05,5.05,0,0,1,35.44,49.7Z" transform="translate(-0.87 -0.15)"/><path class="cls-6" d="M40.67,49.67V60.09H37.9V49.67Zm6.08,0-3.14,4.65L47,60.09H43.84l-3.08-5.55,3.09-4.87Z" transform="translate(-0.87 -0.15)"/></g></svg>