<svg xmlns="http://www.w3.org/2000/svg" width="23" height="23" viewBox="0 0 23 23">
  <path id="linkedin" d="M11.5,0A11.5,11.5,0,1,0,23,11.5,11.5,11.5,0,0,0,11.5,0ZM8.158,17.385h-2.8V8.959h2.8Zm-1.4-9.577H6.74A1.46,1.46,0,1,1,6.777,4.9a1.46,1.46,0,1,1-.019,2.912Zm11.5,9.577h-2.8V12.877c0-1.133-.406-1.906-1.419-1.906A1.533,1.533,0,0,0,12.6,12a1.918,1.918,0,0,0-.092.683v4.706h-2.8s.037-7.636,0-8.426h2.8v1.193a2.781,2.781,0,0,1,2.524-1.391c1.843,0,3.224,1.2,3.224,3.792Zm0,0" fill="#2e2e2e"/>
</svg>
