<svg id="mail-icon" xmlns="http://www.w3.org/2000/svg" width="24.669" height="24.669" viewBox="0 0 24.669 24.669">
  <g id="Group_2" data-name="Group 2" transform="translate(10.215 10.118)">
    <g id="Group_1" data-name="Group 1">
      <path id="Path_1" data-name="Path 1" d="M214.168,210a2.168,2.168,0,1,0,2.168,2.168A2.171,2.171,0,0,0,214.168,210Z" transform="translate(-212 -210)" fill="#40ffb3"/>
    </g>
  </g>
  <g id="Group_4" data-name="Group 4">
    <g id="Group_3" data-name="Group 3">
      <path id="Path_2" data-name="Path 2" d="M12.286,0a12.335,12.335,0,0,0,0,24.669A12.466,12.466,0,0,0,24.669,12.286,12.383,12.383,0,0,0,12.286,0Zm5.155,15.9a2.885,2.885,0,0,1-2.362-1.233,3.615,3.615,0,1,1-.529-5.253V9.4A.723.723,0,1,1,16,9.4v3.614a1.445,1.445,0,0,0,2.891,0c0-4.837-3.2-7.227-6.5-7.227a6.5,6.5,0,1,0,0,13.009,6.435,6.435,0,0,0,3.954-1.34.723.723,0,0,1,.881,1.146,7.872,7.872,0,0,1-4.835,1.639,7.95,7.95,0,0,1,0-15.9c3.994,0,7.95,2.946,7.95,8.673A2.894,2.894,0,0,1,17.442,15.9Z" transform="translate(0 0)" fill="#40ffb3"/>
    </g>
  </g>
</svg>
