<svg xmlns="http://www.w3.org/2000/svg" width="31.036" height="37.245" viewBox="0 0 31.036 37.245">
  <g id="notification_2_" data-name="notification (2)" transform="translate(-42.675)">
    <g id="Group_84" data-name="Group 84" transform="translate(42.675)">
      <g id="Group_83" data-name="Group 83">
        <path id="Path_128" data-name="Path 128" d="M73.6,31.415l-2.665-4.441a13.193,13.193,0,0,1-1.881-6.788V16.295A10.877,10.877,0,0,0,61.3,5.889V3.1a3.1,3.1,0,0,0-6.208,0V5.889A10.877,10.877,0,0,0,47.33,16.295v3.891a13.2,13.2,0,0,1-1.879,6.786l-2.665,4.441a.777.777,0,0,0,.664,1.176H72.936a.776.776,0,0,0,.666-1.175Z" transform="translate(-42.675)" fill="#40ffb3"/>
      </g>
    </g>
    <g id="Group_86" data-name="Group 86" transform="translate(53.306 34.141)">
      <g id="Group_85" data-name="Group 85">
        <path id="Path_129" data-name="Path 129" d="M188.815,469.333a5.4,5.4,0,0,0,9.774,0Z" transform="translate(-188.815 -469.333)" fill="#40ffb3"/>
      </g>
    </g>
  </g>
</svg>
