<svg id="phone_1_" data-name="phone (1)" xmlns="http://www.w3.org/2000/svg" width="19" height="19" viewBox="0 0 19 19">
  <circle id="Ellipse_11" data-name="Ellipse 11" cx="9.5" cy="9.5" r="9.5" fill="#6aaf50"/>
  <path id="Path_119" data-name="Path 119" d="M102.981,98.652h0a2.37,2.37,0,0,0-1.069,3.068,17.07,17.07,0,0,0,2.906,4.48l.9.9,5.968,5.968a9.645,9.645,0,0,0,3.709-3.181l-2.2-2.2a1.221,1.221,0,0,0-.326-.326l-8.307-8.307A1.223,1.223,0,0,0,102.981,98.652Z" transform="translate(-97.891 -94.818)" fill="#4d8538"/>
  <path id="Path_120" data-name="Path 120" d="M111.006,106.1a.9.9,0,0,0-1.017,0l-.441.3a1.375,1.375,0,0,1-1.616-.045,11.479,11.479,0,0,1-2.371-2.371,1.375,1.375,0,0,1-.045-1.616l.3-.441a.9.9,0,0,0,0-1.017l-1.262-1.86a1.224,1.224,0,0,0-1.578-.4h0a2.37,2.37,0,0,0-1.069,3.068,17.069,17.069,0,0,0,2.906,4.48l.9.9a17.072,17.072,0,0,0,4.48,2.906,2.37,2.37,0,0,0,3.068-1.069h0a1.224,1.224,0,0,0-.4-1.578Z" transform="translate(-97.891 -94.819)" fill="#fff"/>
</svg>
