<svg xmlns="http://www.w3.org/2000/svg" width="14.753" height="14" viewBox="0 0 14.753 14">
  <g id="star-icon" transform="translate(0 -13.066)">
    <path id="Path_117" data-name="Path 117" d="M14.383,18.072l-4.557-.666-2.09-4.124a.458.458,0,0,0-.778,0L4.926,17.407.37,18.072a.433.433,0,0,0-.242.735l3.294,3.217-.778,4.531a.436.436,0,0,0,.631.458l4.073-2.144,4.13,2.144a.434.434,0,0,0,.631-.458l-.778-4.531,3.294-3.217A.433.433,0,0,0,14.383,18.072Z" transform="translate(0 0)" fill="#fedb41"/>
    <path id="Path_118" data-name="Path 118" d="M262.277,18.807l-3.294,3.217.778,4.531a.434.434,0,0,1-.631.458L255,24.869v-11.8a.428.428,0,0,1,.389.216l2.09,4.125,4.557.666A.433.433,0,0,1,262.277,18.807Z" transform="translate(-247.651)" fill="#fc3"/>
  </g>
</svg>
