<svg xmlns="http://www.w3.org/2000/svg" width="24.67" height="24.67" viewBox="0 0 24.67 24.67">
  <path id="Path_62" data-name="Path 62" d="M12.335,0A12.335,12.335,0,1,0,24.67,12.336,12.335,12.335,0,0,0,12.335,0Zm0,3.688a4.08,4.08,0,1,1-4.079,4.08A4.08,4.08,0,0,1,12.335,3.689Zm0,17.757a9.052,9.052,0,0,1-5.895-2.174,1.739,1.739,0,0,1-.61-1.322,4.115,4.115,0,0,1,4.135-4.114h4.747a4.109,4.109,0,0,1,4.128,4.114,1.734,1.734,0,0,1-.61,1.321A9.049,9.049,0,0,1,12.332,21.446Z" transform="translate(0 -0.001)" fill="#40ffb3"/>
</svg>
